<?xml version="1.0" standalone="no"?>
<!DOCTYPE svg PUBLIC "-//W3C//DTD SVG 20010904//EN"
 "http://www.w3.org/TR/2001/REC-SVG-20010904/DTD/svg10.dtd">
<svg version="1.0" xmlns="http://www.w3.org/2000/svg"
 width="200.000000pt" height="200.000000pt" viewBox="0 0 200.000000 200.000000"
 preserveAspectRatio="xMidYMid meet">
<metadata>
Created by potrace 1.11, written by Peter Selinger 2001-2013
</metadata>
<g transform="translate(0.000000,200.000000) scale(0.100000,-0.100000)"
fill="#000000" stroke="none">
<path d="M905 1794 l-96 -97 33 -35 c55 -57 149 -147 158 -150 5 -2 8 12 7 31
l-3 34 40 -9 c84 -18 205 -87 275 -157 113 -113 169 -253 169 -417 0 -261
-180 -491 -438 -560 -57 -15 -123 -17 -552 -18 -269 -1 -488 -3 -488 -6 0 -3
23 -28 50 -55 l50 -49 -50 -51 c-27 -28 -50 -53 -50 -56 0 -4 228 -5 508 -4
484 2 511 3 587 24 310 83 542 335 596 647 16 91 6 271 -19 354 -66 217 -198
382 -392 488 -65 36 -197 82 -234 82 -36 0 -54 23 -49 64 2 20 2 36 -1 36 -2
0 -48 -43 -101 -96z"/>
<path d="M691 1775 c-287 -76 -507 -310 -572 -608 -45 -204 -1 -440 113 -608
l31 -46 154 0 c84 1 153 5 153 9 0 4 -4 8 -10 8 -15 0 -102 90 -137 141 -119
172 -134 419 -36 597 80 147 209 251 361 294 36 9 67 19 69 22 2 2 -9 15 -24
28 -15 13 -41 38 -56 55 l-29 31 53 51 c62 58 58 59 -70 26z"/>
<path d="M1798 459 l-3 -44 -96 0 -97 0 -71 -68 c-39 -37 -100 -85 -136 -108
-36 -22 -65 -42 -65 -43 0 -2 106 -2 235 -2 l234 1 3 -43 3 -43 98 98 97 98
-99 99 -100 99 -3 -44z"/>
</g>
</svg>
